<svg width="42" height="42" viewBox="0 0 42 42" fill="none" xmlns="http://www.w3.org/2000/svg">
<path fill-rule="evenodd" clip-rule="evenodd" d="M0.166748 8.49999C0.166748 6.28985 1.04472 4.17024 2.60753 2.60743C4.17033 1.04463 6.28994 0.166656 8.50008 0.166656H33.5001C35.7102 0.166656 37.8298 1.04463 39.3926 2.60743C40.9554 4.17024 41.8334 6.28985 41.8334 8.49999V33.5C41.8334 35.7101 40.9554 37.8297 39.3926 39.3925C37.8298 40.9554 35.7102 41.8333 33.5001 41.8333H8.50008C6.28994 41.8333 4.17033 40.9554 2.60753 39.3925C1.04472 37.8297 0.166748 35.7101 0.166748 33.5V8.49999ZM8.50008 4.33332C7.39501 4.33332 6.33521 4.77231 5.5538 5.55371C4.7724 6.33511 4.33342 7.39492 4.33342 8.49999V33.5C4.33342 34.6051 4.7724 35.6649 5.5538 36.4463C6.33521 37.2277 7.39501 37.6667 8.50008 37.6667H21.0001V23.0833H18.9167C18.3642 23.0833 17.8343 22.8638 17.4436 22.4731C17.0529 22.0824 16.8334 21.5525 16.8334 21C16.8334 20.4475 17.0529 19.9176 17.4436 19.5269C17.8343 19.1362 18.3642 18.9167 18.9167 18.9167H21.0001V15.7917C21.0001 13.8578 21.7683 12.0031 23.1358 10.6357C24.5032 9.26822 26.3579 8.49999 28.2917 8.49999H29.5418C30.0943 8.49999 30.6242 8.71948 31.0149 9.11018C31.4056 9.50089 31.6251 10.0308 31.6251 10.5833C31.6251 11.1359 31.4056 11.6658 31.0149 12.0565C30.6242 12.4472 30.0943 12.6667 29.5418 12.6667H28.2917C27.8814 12.6667 27.475 12.7475 27.0959 12.9045C26.7167 13.0616 26.3722 13.2918 26.082 13.5819C25.7919 13.8721 25.5617 14.2166 25.4046 14.5958C25.2476 14.9749 25.1667 15.3813 25.1667 15.7917V18.9167H29.5418C30.0943 18.9167 30.6242 19.1362 31.0149 19.5269C31.4056 19.9176 31.6251 20.4475 31.6251 21C31.6251 21.5525 31.4056 22.0824 31.0149 22.4731C30.6242 22.8638 30.0943 23.0833 29.5418 23.0833H25.1667V37.6667H33.5001C34.6052 37.6667 35.665 37.2277 36.4464 36.4463C37.2278 35.6649 37.6668 34.6051 37.6668 33.5V8.49999C37.6668 7.39492 37.2278 6.33511 36.4464 5.55371C35.665 4.77231 34.6052 4.33332 33.5001 4.33332H8.50008Z" fill="#4C52ED"/>
</svg>
