<svg width="40" height="40" viewBox="0 0 40 40" fill="none" xmlns="http://www.w3.org/2000/svg">
<path fill-rule="evenodd" clip-rule="evenodd" d="M4.65185 20C4.65185 16.7978 5.5793 13.6676 7.31693 11.005C9.05455 8.34254 11.5243 6.26737 14.4139 5.04195C17.3034 3.81653 20.483 3.4959 23.5506 4.12062C26.6181 4.74533 29.4359 6.28732 31.6474 8.5516C33.859 10.8159 35.3651 13.7007 35.9753 16.8414C36.5855 19.982 36.2723 23.2374 35.0754 26.1958C33.8785 29.1542 31.8516 31.6828 29.2511 33.4619C26.6505 35.2409 23.5931 36.1905 20.4655 36.1905C17.4736 36.1959 14.5423 35.3277 12.0154 33.6876C11.7907 33.542 11.538 33.4475 11.2745 33.4104C11.011 33.3732 10.7428 33.3944 10.488 33.4724L5.12998 35.1086L7.14854 30.2762C7.26587 29.9948 7.31529 29.6887 7.29263 29.3837C7.26996 29.0787 7.17587 28.7837 7.01831 28.5238C5.46659 25.9649 4.64673 23.0119 4.65185 20ZM20.4655 0C9.67687 0 0.93099 8.95428 0.93099 20C0.93099 23.5009 1.81097 26.7962 3.35885 29.6628L0.14961 37.3466C0.0107103 37.6795 -0.0326851 38.046 0.0245065 38.4032C0.0816981 38.7603 0.237109 39.0935 0.472538 39.3635C0.707968 39.6335 1.01367 39.8292 1.35384 39.9278C1.69401 40.0264 2.05457 40.0236 2.39329 39.92L10.7652 37.3638C13.7178 39.0961 17.0625 40.0051 20.4655 40C31.2541 40 40 31.0457 40 20C40 8.95428 31.2541 0 20.4655 0ZM24.7315 24.1562L22.285 25.92C20.9371 25.126 19.6994 24.1503 18.6051 23.019C17.4303 21.8179 16.4145 20.4641 15.5837 18.9924L17.1372 17.6419C17.4609 17.3607 17.6809 16.9747 17.7608 16.5478C17.8407 16.121 17.7755 15.679 17.5762 15.2952L15.5968 11.4857C15.465 11.2327 15.2792 11.0134 15.0532 10.8442C14.8271 10.675 14.5667 10.5602 14.2913 10.5083C14.0159 10.4565 13.7326 10.469 13.4625 10.5449C13.1925 10.6208 12.9427 10.7581 12.7317 10.9467L12.1438 11.4705C10.7317 12.7314 9.8964 14.8038 10.5885 16.9028C11.702 20.2231 13.5445 23.2375 15.9744 25.7143C19.3474 29.1676 22.7743 30.5276 24.7798 31.0571C26.3947 31.4819 27.9221 30.9124 28.9993 30.0133L30.0988 29.0952C30.3306 28.9017 30.5134 28.6538 30.6317 28.3725C30.7501 28.0913 30.8004 27.7849 30.7785 27.4795C30.7566 27.1741 30.6631 26.8786 30.5059 26.6181C30.3487 26.3575 30.1325 26.1396 29.8755 25.9828L26.7537 24.0781C26.445 23.8895 26.0896 23.7965 25.7304 23.8104C25.3712 23.8242 25.0236 23.9443 24.7296 24.1562H24.7315Z" fill="#4C52ED"/>
</svg>
